<svg width="30" height="31" viewBox="0 0 30 31" fill="none" xmlns="http://www.w3.org/2000/svg">
<g clip-path="url(#clip0_1_1157)">
<path d="M29.9291 15.4699C29.9291 7.32575 23.3269 0.723633 15.1828 0.723633C7.03865 0.723633 0.436523 7.32575 0.436523 15.4699C0.436523 22.8301 5.82899 28.9308 12.8787 30.037V19.7325H9.13452V15.4699H12.8787V12.2211C12.8787 8.52533 15.0803 6.48389 18.4486 6.48389C20.0614 6.48389 21.7495 6.7719 21.7495 6.7719V10.4009H19.8901C18.0583 10.4009 17.4869 11.5377 17.4869 12.705V15.4699H21.5767L20.9229 19.7325H17.4869V30.037C24.5366 28.9308 29.9291 22.8301 29.9291 15.4699Z" fill="#1877F2"/>
<path d="M20.9229 19.7325L21.5767 15.4699H17.4869V12.705C17.4869 11.5388 18.0583 10.4009 19.8901 10.4009H21.7495V6.7719C21.7495 6.7719 20.062 6.48389 18.4486 6.48389C15.0803 6.48389 12.8787 8.52532 12.8787 12.2211V15.4699H9.13452V19.7325H12.8787V30.037C14.4055 30.2759 15.9601 30.2759 17.4869 30.037V19.7325H20.9229Z" fill="white"/>
</g>
<defs>
<clipPath id="clip0_1_1157">
<rect width="29.4925" height="29.4925" fill="white" transform="translate(0.436523 0.723633)"/>
</clipPath>
</defs>
</svg>
