<svg width="30" height="31" viewBox="0 0 30 31" fill="none" xmlns="http://www.w3.org/2000/svg">
<g clip-path="url(#clip0_1_1149)">
<path d="M29.6411 15.7591C29.6411 14.7567 29.5598 13.7489 29.3864 12.7627H15.4773V18.4412H23.4424C23.1119 20.2726 22.0499 21.8928 20.4948 22.9223V26.6068H25.2467C28.0372 24.0385 29.6411 20.2456 29.6411 15.7591Z" fill="#4285F4"/>
<path d="M15.4779 30.1662C19.4551 30.1662 22.8091 28.8603 25.2528 26.6063L20.5008 22.9217C19.1787 23.8212 17.4719 24.3305 15.4833 24.3305C11.6363 24.3305 8.37436 21.7351 7.20398 18.2456H2.30029V22.0439C4.80361 27.0235 9.90236 30.1662 15.4779 30.1662Z" fill="#34A853"/>
<path d="M7.19834 18.2456C6.58064 16.4142 6.58064 14.431 7.19834 12.5996V8.80127H2.30008C0.208567 12.968 0.208567 17.8771 2.30008 22.0439L7.19834 18.2456Z" fill="#FBBC04"/>
<path d="M15.4779 6.5095C17.5803 6.47699 19.6122 7.26808 21.1348 8.72022L25.3449 4.5101C22.679 2.00678 19.1408 0.630498 15.4779 0.673845C9.90235 0.673845 4.80361 3.81654 2.30029 8.8015L7.19855 12.5998C8.36352 9.10493 11.6308 6.5095 15.4779 6.5095Z" fill="#EA4335"/>
</g>
<defs>
<clipPath id="clip0_1_1149">
<rect width="29.4925" height="29.4925" fill="white" transform="translate(0.436523 0.672852)"/>
</clipPath>
</defs>
</svg>
