<svg width="182" height="36" viewBox="0 0 182 36" fill="none" xmlns="http://www.w3.org/2000/svg">
<g clip-path="url(#clip0_3_3743)">
<path d="M21.5263 36.0003C21.511 36.0003 21.4979 36.0003 21.4826 36.0003C6.26786 35.6222 0.31703 24.5182 0.0722656 24.0462L3.15149 22.4421L1.61079 23.2441L3.1493 22.4377C3.3591 22.8355 8.44889 32.1759 21.5088 32.5277C21.5656 32.5255 21.6181 32.5255 21.6705 32.5255C24.4023 32.5233 33.5416 31.8328 39.5995 23.2441C33.5394 14.6577 24.4001 13.965 21.6705 13.965C21.6159 13.965 21.5634 13.965 21.5088 13.9628C16.3185 14.1026 11.7707 15.6739 7.98995 18.633L5.84827 15.899C10.2431 12.4592 15.5033 10.6388 21.4804 10.4902C21.5263 10.4902 21.5722 10.4902 21.6181 10.4924H21.6727C24.9464 10.4946 36.1684 11.3534 43.1551 22.3132C43.5179 22.8814 43.5179 23.6091 43.1551 24.1795C36.1706 35.1392 24.9464 35.9981 21.6727 35.9981H21.6181C21.5875 35.9981 21.5569 36.0003 21.5263 36.0003Z" fill="#16171A"/>
<path d="M21.6507 25.5101C21.6354 25.5101 21.6223 25.5101 21.607 25.5101C6.39228 25.132 0.44145 14.028 0.196686 13.5538C-0.065562 13.0512 -0.065562 12.4524 0.196686 11.9519C0.443635 11.4799 6.39228 0.378073 21.607 0C21.6529 0 21.6988 2.13436e-06 21.7447 0.00218753H21.7993C25.073 0.00437292 36.295 0.863225 43.2817 11.823L40.3533 13.6893C34.3172 4.2178 24.6228 3.47695 21.7971 3.47477C21.7447 3.47477 21.69 3.47477 21.6354 3.47258C10.6691 3.7698 5.32144 10.4003 3.76544 12.754C5.31925 15.1033 10.6647 21.7425 21.6354 22.0375C21.69 22.0353 21.7447 22.0353 21.7971 22.0353C24.153 22.0331 30.2153 21.5545 35.646 17.1444L37.8357 19.839C31.5418 24.9485 24.5245 25.5035 21.8015 25.5057H21.7469C21.7141 25.5079 21.6835 25.5101 21.6507 25.5101Z" fill="#16171A"/>
<path d="M24.6226 17.9379C24.6226 19.5091 23.3486 20.7854 21.7751 20.7854C20.2038 20.7854 18.9297 19.5113 18.9297 17.9379C18.9297 16.3644 20.2038 15.0903 21.7751 15.0903C23.3486 15.0925 24.6226 16.3666 24.6226 17.9379Z" fill="#003DFF"/>
<path d="M21.5263 36.0003C21.511 36.0003 21.4979 36.0003 21.4826 36.0003C6.26786 35.6222 0.31703 24.5182 0.0722656 24.0462L3.15149 22.4421L1.61079 23.2441L3.1493 22.4377C3.3591 22.8355 8.44889 32.1759 21.5088 32.5277C21.5656 32.5255 21.6181 32.5255 21.6705 32.5255C24.4023 32.5233 33.5416 31.8328 39.5995 23.2441C33.5394 14.6577 24.4001 13.965 21.6705 13.965C21.6159 13.965 21.5634 13.965 21.5088 13.9628C16.3185 14.1026 11.7707 15.6739 7.98995 18.633L5.84827 15.899C10.2431 12.4592 15.5033 10.6388 21.4804 10.4902C21.5263 10.4902 21.5722 10.4902 21.6181 10.4924H21.6727C24.9464 10.4946 36.1684 11.3534 43.1551 22.3132C43.5179 22.8814 43.5179 23.6091 43.1551 24.1795C36.1706 35.1392 24.9464 35.9981 21.6727 35.9981H21.6181C21.5875 35.9981 21.5569 36.0003 21.5263 36.0003Z" fill="#003DFF"/>
<path d="M21.6507 25.5101C21.6354 25.5101 21.6223 25.5101 21.607 25.5101C6.39228 25.132 0.44145 14.028 0.196686 13.5538C-0.065562 13.0512 -0.065562 12.4524 0.196686 11.9519C0.443635 11.4799 6.39228 0.378073 21.607 0C21.6529 0 21.6988 2.13436e-06 21.7447 0.00218753H21.7993C25.073 0.00437292 36.295 0.863225 43.2817 11.823L40.3533 13.6893C34.3172 4.2178 24.6228 3.47695 21.7971 3.47477C21.7447 3.47477 21.69 3.47477 21.6354 3.47258C10.6691 3.7698 5.32144 10.4003 3.76544 12.754C5.31925 15.1033 10.6647 21.7425 21.6354 22.0375C21.69 22.0353 21.7447 22.0353 21.7971 22.0353C24.153 22.0331 30.2153 21.5545 35.646 17.1444L37.8357 19.839C31.5418 24.9485 24.5245 25.5035 21.8015 25.5057H21.7469C21.7141 25.5079 21.6835 25.5101 21.6507 25.5101Z" fill="#003DFF"/>
<path d="M50.3998 34.5772V31.6619H49.2568V31.2466H52.0126V31.6619H50.8697V34.5772H50.3998Z" fill="#16171A"/>
<path d="M61.4838 34.1641H63.4244V34.5772H61.0073V31.2466H63.3588V31.6597H61.4838V34.1641ZM61.4422 32.6846H63.1556V33.0889H61.4422V32.6846Z" fill="#16171A"/>
<path d="M74.1594 34.6167C73.9059 34.6167 73.672 34.5752 73.4579 34.49C73.2437 34.4047 73.0579 34.2867 72.9006 34.1337C72.7432 33.9786 72.6209 33.7994 72.5313 33.5939C72.4417 33.3863 72.3979 33.1612 72.3979 32.9143C72.3979 32.6673 72.4417 32.4401 72.5313 32.2346C72.6209 32.0292 72.7432 31.8478 72.9028 31.6948C73.0623 31.5397 73.2481 31.4217 73.4622 31.3386C73.6764 31.2556 73.9102 31.2119 74.1637 31.2119C74.4216 31.2119 74.6576 31.2556 74.8762 31.343C75.0925 31.4304 75.2783 31.5593 75.4291 31.7298L75.1188 32.0292C74.992 31.8959 74.85 31.7976 74.6904 31.732C74.5309 31.6664 74.3626 31.6336 74.1812 31.6336C73.9933 31.6336 73.8206 31.6664 73.6611 31.7298C73.5016 31.7932 73.3617 31.8828 73.2437 31.9964C73.1257 32.1122 73.0361 32.2477 72.9705 32.4029C72.905 32.5602 72.8722 32.7307 72.8722 32.9143C72.8722 33.0979 72.905 33.2683 72.9705 33.4257C73.0361 33.583 73.1279 33.7185 73.2437 33.8322C73.3617 33.9458 73.4994 34.0354 73.6611 34.0988C73.8206 34.1621 73.9955 34.1949 74.1812 34.1949C74.3626 34.1949 74.5309 34.1621 74.6904 34.0966C74.85 34.031 74.992 33.9305 75.1188 33.795L75.4291 34.0944C75.2761 34.2649 75.0925 34.396 74.8762 34.4834C74.6576 34.573 74.4194 34.6167 74.1594 34.6167Z" fill="#16171A"/>
<path d="M85.0643 34.5772H84.5879V31.2466H85.0643V34.5772ZM87.018 33.0933H85.0162V32.6802H87.018V33.0933ZM86.9765 31.2466H87.4529V34.5772H86.9765V31.2466Z" fill="#16171A"/>
<path d="M96.9307 34.5772V31.2466H97.3197L99.5226 33.9827H99.3171V31.2466H99.7935V34.5772H99.4023L97.2017 31.8432H97.4049V34.5772H96.9307Z" fill="#16171A"/>
<path d="M110.776 34.6167C110.522 34.6167 110.286 34.573 110.07 34.4878C109.851 34.4025 109.663 34.2823 109.506 34.1294C109.346 33.9742 109.224 33.795 109.134 33.5896C109.045 33.3842 109.001 33.1591 109.001 32.9143C109.001 32.6695 109.047 32.4444 109.134 32.239C109.224 32.0336 109.346 31.8522 109.506 31.6992C109.663 31.5462 109.851 31.426 110.067 31.3408C110.284 31.2556 110.52 31.2119 110.778 31.2119C111.031 31.2119 111.265 31.2534 111.481 31.3386C111.698 31.4238 111.884 31.5419 112.043 31.6948C112.203 31.85 112.325 32.0292 112.412 32.2368C112.5 32.4444 112.543 32.6717 112.543 32.9143C112.543 33.1612 112.5 33.3885 112.412 33.5939C112.325 33.7994 112.203 33.9808 112.043 34.1337C111.884 34.2889 111.698 34.4069 111.481 34.49C111.263 34.573 111.029 34.6167 110.776 34.6167ZM110.771 34.1927C110.959 34.1927 111.13 34.16 111.287 34.0966C111.444 34.0332 111.58 33.9436 111.696 33.8278C111.811 33.712 111.901 33.5765 111.967 33.4213C112.032 33.2661 112.065 33.0957 112.065 32.9121C112.065 32.7285 112.032 32.5602 111.967 32.4051C111.901 32.2499 111.811 32.1144 111.696 31.9986C111.58 31.8806 111.444 31.791 111.287 31.7276C111.13 31.6642 110.957 31.6315 110.771 31.6315C110.588 31.6315 110.417 31.6642 110.26 31.7276C110.102 31.791 109.967 31.8806 109.849 31.9986C109.731 32.1166 109.639 32.2521 109.576 32.4051C109.51 32.5581 109.477 32.7285 109.477 32.9121C109.477 33.0957 109.51 33.2661 109.576 33.4213C109.641 33.5765 109.733 33.712 109.849 33.8278C109.967 33.9436 110.102 34.0332 110.26 34.0966C110.417 34.1621 110.585 34.1927 110.771 34.1927Z" fill="#16171A"/>
<path d="M121.746 34.5772V31.2466H122.223V34.1641H124.025V34.5772H121.746Z" fill="#16171A"/>
<path d="M134.493 34.6167C134.24 34.6167 134.004 34.573 133.787 34.4878C133.569 34.4025 133.381 34.2823 133.224 34.1294C133.066 33.9742 132.942 33.795 132.852 33.5896C132.762 33.3842 132.719 33.1591 132.719 32.9143C132.719 32.6695 132.765 32.4444 132.852 32.239C132.942 32.0336 133.064 31.8522 133.224 31.6992C133.383 31.5462 133.569 31.426 133.785 31.3408C134.002 31.2556 134.238 31.2119 134.493 31.2119C134.747 31.2119 134.983 31.2534 135.197 31.3386C135.413 31.4238 135.599 31.5419 135.759 31.6948C135.918 31.85 136.041 32.0292 136.128 32.2368C136.215 32.4444 136.259 32.6717 136.259 32.9143C136.259 33.1612 136.215 33.3885 136.128 33.5939C136.041 33.7994 135.918 33.9808 135.759 34.1337C135.599 34.2889 135.413 34.4069 135.197 34.49C134.981 34.573 134.747 34.6167 134.493 34.6167ZM134.489 34.1927C134.677 34.1927 134.847 34.16 135.005 34.0966C135.162 34.0332 135.298 33.9436 135.413 33.8278C135.529 33.712 135.619 33.5765 135.684 33.4213C135.75 33.2661 135.783 33.0957 135.783 32.9121C135.783 32.7285 135.75 32.5602 135.684 32.4051C135.619 32.2499 135.529 32.1144 135.413 31.9986C135.298 31.8806 135.162 31.791 135.005 31.7276C134.847 31.6642 134.675 31.6315 134.489 31.6315C134.305 31.6315 134.135 31.6642 133.978 31.7276C133.82 31.791 133.685 31.8806 133.567 31.9986C133.449 32.1166 133.357 32.2521 133.294 32.4051C133.228 32.5581 133.195 32.7285 133.195 32.9121C133.195 33.0957 133.228 33.2661 133.294 33.4213C133.359 33.5765 133.451 33.712 133.567 33.8278C133.685 33.9436 133.82 34.0332 133.978 34.0966C134.133 34.1621 134.303 34.1927 134.489 34.1927Z" fill="#16171A"/>
<path d="M146.968 34.6167C146.71 34.6167 146.474 34.5752 146.257 34.49C146.041 34.4047 145.855 34.2867 145.696 34.1337C145.536 33.9808 145.414 33.7994 145.324 33.5939C145.235 33.3885 145.191 33.1612 145.191 32.9143C145.191 32.6673 145.235 32.4401 145.324 32.2346C145.414 32.0292 145.538 31.8478 145.698 31.6948C145.857 31.5419 146.045 31.4217 146.262 31.3386C146.478 31.2534 146.714 31.2119 146.976 31.2119C147.239 31.2119 147.481 31.2556 147.7 31.3408C147.918 31.426 148.104 31.555 148.257 31.7254L147.962 32.0205C147.827 31.8871 147.678 31.791 147.518 31.7276C147.359 31.6642 147.184 31.6336 146.998 31.6336C146.808 31.6336 146.631 31.6664 146.467 31.7298C146.303 31.7932 146.163 31.8828 146.043 31.9964C145.923 32.1101 145.831 32.2456 145.768 32.4029C145.702 32.5602 145.67 32.7307 145.67 32.9143C145.67 33.0957 145.702 33.264 145.768 33.4213C145.833 33.5786 145.925 33.7141 146.043 33.83C146.163 33.9458 146.303 34.0354 146.465 34.0988C146.627 34.1621 146.804 34.1949 146.994 34.1949C147.171 34.1949 147.341 34.1665 147.505 34.1119C147.669 34.0551 147.82 33.9633 147.96 33.8343L148.231 34.1949C148.065 34.3348 147.875 34.4397 147.654 34.5118C147.429 34.5796 147.204 34.6167 146.968 34.6167ZM147.772 34.1316V32.8946H148.229V34.1927L147.772 34.1316Z" fill="#16171A"/>
<path d="M158.091 31.2466H157.615V34.5772H158.091V31.2466Z" fill="#16171A"/>
<path d="M168.046 34.1641H169.987V34.5772H167.57V31.2466H169.921V31.6597H168.046V34.1641ZM168.003 32.6846H169.716V33.0889H168.003V32.6846Z" fill="#16171A"/>
<path d="M180.206 34.6165C179.952 34.6165 179.71 34.5772 179.478 34.5007C179.246 34.422 179.065 34.3215 178.932 34.1991L179.109 33.8276C179.235 33.9391 179.397 34.0308 179.594 34.1052C179.791 34.1773 179.996 34.2144 180.208 34.2144C180.402 34.2144 180.558 34.1926 180.678 34.1489C180.798 34.103 180.888 34.044 180.944 33.9653C181.001 33.8888 181.03 33.7992 181.03 33.7008C181.03 33.5872 180.992 33.4954 180.918 33.4255C180.844 33.3556 180.748 33.2987 180.628 33.2572C180.507 33.2135 180.376 33.1764 180.234 33.1458C180.092 33.113 179.948 33.0758 179.804 33.0343C179.659 32.9906 179.528 32.936 179.408 32.8704C179.288 32.8048 179.194 32.7131 179.12 32.6016C179.045 32.488 179.01 32.3437 179.01 32.1667C179.01 31.9962 179.056 31.8367 179.146 31.6925C179.235 31.5482 179.375 31.4324 179.563 31.345C179.753 31.2576 179.992 31.2139 180.284 31.2139C180.477 31.2139 180.669 31.2401 180.859 31.2904C181.049 31.3406 181.215 31.4149 181.353 31.5089L181.196 31.8892C181.054 31.793 180.903 31.7253 180.743 31.6815C180.584 31.6378 180.431 31.6182 180.282 31.6182C180.094 31.6182 179.941 31.6422 179.821 31.6903C179.701 31.7384 179.613 31.8017 179.557 31.8804C179.5 31.9591 179.474 32.0487 179.474 32.147C179.474 32.265 179.511 32.359 179.585 32.4289C179.659 32.4989 179.756 32.5535 179.876 32.595C179.996 32.6366 180.127 32.6737 180.269 32.7065C180.411 32.7393 180.555 32.7764 180.7 32.818C180.844 32.8595 180.975 32.9141 181.095 32.9797C181.213 33.0474 181.309 33.1348 181.381 33.2463C181.456 33.3577 181.491 33.4998 181.491 33.6746C181.491 33.8429 181.445 33.9981 181.353 34.1423C181.261 34.2865 181.119 34.4024 180.927 34.4898C180.739 34.5728 180.499 34.6165 180.206 34.6165Z" fill="#16171A"/>
<path d="M59.2262 27.4594C58.2274 27.4594 57.2462 27.3873 56.2824 27.2452C55.3187 27.1032 54.3964 26.9065 53.5157 26.6574C52.635 26.4082 51.8199 26.1045 51.0724 25.7461C50.3229 25.3898 49.6738 24.9965 49.1274 24.5681L50.9828 20.3918C52.0297 21.1546 53.2906 21.7839 54.7658 22.2822C56.2409 22.7805 57.727 23.0318 59.2262 23.0318C61.0094 23.0318 62.2879 22.763 63.0615 22.2276C63.8352 21.6922 64.222 21.0212 64.222 20.2126C64.222 19.5942 64.0144 19.1003 63.5969 18.7309C63.1795 18.3616 62.6266 18.0469 61.9382 17.7847C61.2476 17.5224 60.4696 17.2908 59.5998 17.0897C58.7301 16.8887 57.8384 16.6745 56.9249 16.4472C56.0092 16.2221 55.1154 15.9424 54.2478 15.608C53.3802 15.2737 52.6 14.8409 51.9095 14.3055C51.2189 13.7701 50.666 13.1057 50.2507 12.3081C49.8333 11.5104 49.6257 10.5292 49.6257 9.36434C49.6257 8.31754 49.8399 7.32974 50.2682 6.40314C50.6966 5.47434 51.3391 4.66138 52.1936 3.95987C53.0502 3.25835 54.132 2.70544 55.4411 2.30115C56.7501 1.89685 58.2842 1.6958 60.0435 1.6958C61.6126 1.6958 63.1468 1.87937 64.6459 2.2487C66.1451 2.61803 67.476 3.15782 68.643 3.87245L66.8947 8.0837C65.7539 7.41934 64.5935 6.92325 63.4156 6.602C62.2376 6.28075 61.1012 6.12122 60.0085 6.12122C58.2471 6.12122 56.9861 6.41188 56.2256 6.99538C55.4629 7.57888 55.0848 8.28694 55.0848 9.11958C55.0848 9.71401 55.2924 10.197 55.7098 10.5641C56.1251 10.9335 56.678 11.2482 57.3686 11.5104C58.0592 11.7726 58.8372 11.9977 59.7069 12.1879C60.5745 12.378 61.4662 12.5856 62.3841 12.8129C63.2997 13.0402 64.1914 13.3177 65.059 13.6521C65.9266 13.9865 66.7068 14.4148 67.3952 14.9371C68.0857 15.4616 68.6386 16.1216 69.0539 16.9171C69.4691 17.7147 69.6789 18.6829 69.6789 19.8258C69.6789 20.8486 69.4647 21.8233 69.0364 22.7521C68.6081 23.6787 67.959 24.4938 67.0914 25.1953C66.2216 25.8969 65.1355 26.4498 63.8264 26.8541C62.5217 27.2584 60.9854 27.4594 59.2262 27.4594Z" fill="#16171A"/>
<path d="M87.8093 27.4594C85.8818 27.4594 84.0919 27.1382 82.4398 26.4957C80.7854 25.8531 79.3584 24.9615 78.1564 23.8185C76.9544 22.6778 76.0147 21.3206 75.3372 19.7515C74.6598 18.1802 74.3188 16.456 74.3188 14.5765C74.3188 12.6971 74.6576 10.9728 75.3372 9.40149C76.0147 7.83238 76.9544 6.47525 78.1564 5.33447C79.3584 4.1937 80.7854 3.29987 82.4398 2.65955C84.0919 2.01705 85.8949 1.6958 87.8443 1.6958C90.01 1.6958 91.9528 2.06513 93.6793 2.80161C95.4035 3.54027 96.8481 4.62204 98.0151 6.0491L94.4813 9.33157C92.768 7.35816 90.6394 6.37035 88.0934 6.37035C86.9045 6.37035 85.8031 6.5736 84.7934 6.97571C83.7816 7.38001 82.914 7.94603 82.1885 8.67158C81.4629 9.39713 80.8991 10.2604 80.4948 11.2591C80.0905 12.2578 79.8872 13.3658 79.8872 14.5787C79.8872 15.7916 80.0883 16.8974 80.4948 17.8961C80.8991 18.8948 81.4629 19.7581 82.1885 20.4836C82.914 21.2092 83.7816 21.773 84.7934 22.1773C85.8031 22.5816 86.9045 22.7827 88.0934 22.7827C90.6394 22.7827 92.768 21.7839 94.4813 19.7865L98.0151 23.1039C96.8481 24.531 95.397 25.6149 93.6618 26.3514C91.9244 27.0923 89.9728 27.4594 87.8093 27.4594Z" fill="#16171A"/>
<path d="M113.99 24.3889C113.975 24.3889 113.958 24.3889 113.942 24.3889C110.308 24.2993 107.847 22.7958 106.422 21.5523L108.964 18.6392C110.328 19.8302 112.017 20.4618 113.988 20.5208C114.01 20.5208 114.03 20.5208 114.049 20.5208C114.69 20.5208 116.928 20.3962 118.873 18.8227L121.305 21.8277C118.457 24.1332 115.291 24.3846 114.056 24.3867C114.034 24.3889 114.012 24.3889 113.99 24.3889Z" fill="#16171A"/>
<path d="M105.972 27.068H100.334L111.466 2.08887H116.928L128.095 27.068H122.352L114.178 7.54798L105.972 27.068Z" fill="#16171A"/>
<path d="M133.021 27.068V2.08887H138.515V22.5355H151.146V27.068H133.021Z" fill="#16171A"/>
<path d="M159.21 27.068H153.572L164.706 2.08887H170.165L181.335 27.068H175.59L167.418 7.54798L159.21 27.068Z" fill="#16171A"/>
<path d="M167.554 24.3889C167.539 24.3889 167.522 24.3889 167.506 24.3889C163.872 24.2993 161.411 22.7958 159.986 21.5523L162.528 18.6392C163.892 19.8302 165.581 20.4618 167.552 20.5208C167.574 20.5208 167.594 20.5208 167.613 20.5208C168.254 20.5208 170.492 20.3962 172.437 18.8227L174.869 21.8277C172.021 24.1332 168.855 24.3846 167.62 24.3867C167.598 24.3889 167.576 24.3889 167.554 24.3889Z" fill="#16171A"/>
</g>
<defs>
<clipPath id="clip0_3_3743">
<rect width="182" height="36" fill="white"/>
</clipPath>
</defs>
</svg>
