<svg width="182" height="36" viewBox="0 0 182 36" fill="none" xmlns="http://www.w3.org/2000/svg">
<path d="M21.5263 36.0001C21.511 36.0001 21.4979 36.0001 21.4826 36.0001C6.26786 35.622 0.31703 24.518 0.0722656 24.046L3.15149 22.4419L1.61079 23.2439L3.1493 22.4375C3.3591 22.8353 8.44889 32.1757 21.5088 32.5275C21.5656 32.5253 21.6181 32.5253 21.6705 32.5253C24.4023 32.5231 33.5416 31.8326 39.5995 23.2439C33.5394 14.6575 24.4001 13.9648 21.6705 13.9648C21.6159 13.9648 21.5634 13.9648 21.5088 13.9626C16.3185 14.1024 11.7707 15.6737 7.98995 18.6328L5.84827 15.8988C10.2431 12.459 15.5033 10.6386 21.4804 10.49C21.5263 10.49 21.5722 10.49 21.6181 10.4922H21.6727C24.9464 10.4944 36.1684 11.3532 43.1551 22.313C43.5179 22.8812 43.5179 23.6089 43.1551 24.1793C36.1706 35.139 24.9464 35.9979 21.6727 35.9979H21.6181C21.5875 35.9979 21.5569 36.0001 21.5263 36.0001Z" fill="#16171A"/>
<path d="M21.6507 25.5101C21.6354 25.5101 21.6223 25.5101 21.607 25.5101C6.39228 25.132 0.44145 14.028 0.196686 13.5538C-0.0655618 13.0512 -0.0655618 12.4524 0.196686 11.9519C0.443635 11.4799 6.39228 0.378073 21.607 0C21.6529 0 21.6988 2.13422e-06 21.7447 0.00218753H21.7993C25.073 0.00437292 36.295 0.863225 43.2817 11.823L40.3533 13.6893C34.3172 4.2178 24.6228 3.47695 21.7971 3.47477C21.7447 3.47477 21.69 3.47477 21.6354 3.47258C10.6691 3.7698 5.32144 10.4003 3.76544 12.754C5.31925 15.1033 10.6647 21.7425 21.6354 22.0375C21.69 22.0353 21.7447 22.0353 21.7971 22.0353C24.153 22.0331 30.2153 21.5545 35.646 17.1444L37.8357 19.839C31.5418 24.9485 24.5245 25.5035 21.8015 25.5057H21.7469C21.7141 25.5079 21.6835 25.5101 21.6507 25.5101Z" fill="#16171A"/>
<path d="M24.6226 17.9377C24.6226 19.5089 23.3486 20.7852 21.7751 20.7852C20.2038 20.7852 18.9297 19.5111 18.9297 17.9377C18.9297 16.3642 20.2038 15.0901 21.7751 15.0901C23.3486 15.0923 24.6226 16.3664 24.6226 17.9377Z" fill="#003DFF"/>
<path d="M21.5263 36.0001C21.511 36.0001 21.4979 36.0001 21.4826 36.0001C6.26786 35.622 0.31703 24.518 0.0722656 24.046L3.15149 22.4419L1.61079 23.2439L3.1493 22.4375C3.3591 22.8353 8.44889 32.1757 21.5088 32.5275C21.5656 32.5253 21.6181 32.5253 21.6705 32.5253C24.4023 32.5231 33.5416 31.8326 39.5995 23.2439C33.5394 14.6575 24.4001 13.9648 21.6705 13.9648C21.6159 13.9648 21.5634 13.9648 21.5088 13.9626C16.3185 14.1024 11.7707 15.6737 7.98995 18.6328L5.84827 15.8988C10.2431 12.459 15.5033 10.6386 21.4804 10.49C21.5263 10.49 21.5722 10.49 21.6181 10.4922H21.6727C24.9464 10.4944 36.1684 11.3532 43.1551 22.313C43.5179 22.8812 43.5179 23.6089 43.1551 24.1793C36.1706 35.139 24.9464 35.9979 21.6727 35.9979H21.6181C21.5875 35.9979 21.5569 36.0001 21.5263 36.0001Z" fill="#003DFF"/>
<path d="M21.6507 25.5101C21.6354 25.5101 21.6223 25.5101 21.607 25.5101C6.39228 25.132 0.44145 14.028 0.196686 13.5538C-0.0655618 13.0512 -0.0655618 12.4524 0.196686 11.9519C0.443635 11.4799 6.39228 0.378073 21.607 0C21.6529 0 21.6988 2.13422e-06 21.7447 0.00218753H21.7993C25.073 0.00437292 36.295 0.863225 43.2817 11.823L40.3533 13.6893C34.3172 4.2178 24.6228 3.47695 21.7971 3.47477C21.7447 3.47477 21.69 3.47477 21.6354 3.47258C10.6691 3.7698 5.32144 10.4003 3.76544 12.754C5.31925 15.1033 10.6647 21.7425 21.6354 22.0375C21.69 22.0353 21.7447 22.0353 21.7971 22.0353C24.153 22.0331 30.2153 21.5545 35.646 17.1444L37.8357 19.839C31.5418 24.9485 24.5245 25.5035 21.8015 25.5057H21.7469C21.7141 25.5079 21.6835 25.5101 21.6507 25.5101Z" fill="#003DFF"/>
<path d="M50.3998 34.5774V31.6621H49.2568V31.2468H52.0126V31.6621H50.8697V34.5774H50.3998Z" fill="#16171A"/>
<path d="M61.4838 34.1643H63.4244V34.5774H61.0073V31.2468H63.3588V31.6599H61.4838V34.1643ZM61.4422 32.6848H63.1556V33.0891H61.4422V32.6848Z" fill="#16171A"/>
<path d="M74.1594 34.6165C73.9059 34.6165 73.672 34.575 73.4579 34.4898C73.2437 34.4045 73.0579 34.2865 72.9006 34.1335C72.7432 33.9784 72.6209 33.7992 72.5313 33.5937C72.4417 33.3861 72.3979 33.161 72.3979 32.9141C72.3979 32.6671 72.4417 32.4399 72.5313 32.2344C72.6209 32.029 72.7432 31.8476 72.9028 31.6946C73.0623 31.5395 73.2481 31.4215 73.4622 31.3384C73.6764 31.2554 73.9102 31.2117 74.1637 31.2117C74.4216 31.2117 74.6576 31.2554 74.8762 31.3428C75.0925 31.4302 75.2783 31.5591 75.4291 31.7296L75.1188 32.029C74.992 31.8957 74.85 31.7974 74.6904 31.7318C74.5309 31.6662 74.3626 31.6334 74.1812 31.6334C73.9933 31.6334 73.8206 31.6662 73.6611 31.7296C73.5016 31.793 73.3617 31.8826 73.2437 31.9962C73.1257 32.112 73.0361 32.2475 72.9705 32.4027C72.905 32.56 72.8722 32.7305 72.8722 32.9141C72.8722 33.0977 72.905 33.2681 72.9705 33.4255C73.0361 33.5828 73.1279 33.7183 73.2437 33.832C73.3617 33.9456 73.4994 34.0352 73.6611 34.0986C73.8206 34.1619 73.9955 34.1947 74.1812 34.1947C74.3626 34.1947 74.5309 34.1619 74.6904 34.0964C74.85 34.0308 74.992 33.9303 75.1188 33.7948L75.4291 34.0942C75.2761 34.2647 75.0925 34.3958 74.8762 34.4832C74.6576 34.5728 74.4194 34.6165 74.1594 34.6165Z" fill="#16171A"/>
<path d="M85.0643 34.5774H84.5879V31.2468H85.0643V34.5774ZM87.018 33.0935H85.0162V32.6804H87.018V33.0935ZM86.9765 31.2468H87.4529V34.5774H86.9765V31.2468Z" fill="#16171A"/>
<path d="M96.9307 34.5774V31.2468H97.3197L99.5226 33.9829H99.3171V31.2468H99.7935V34.5774H99.4023L97.2017 31.8434H97.4049V34.5774H96.9307Z" fill="#16171A"/>
<path d="M110.776 34.6165C110.522 34.6165 110.286 34.5728 110.07 34.4876C109.851 34.4023 109.663 34.2821 109.506 34.1292C109.346 33.974 109.224 33.7948 109.134 33.5894C109.045 33.384 109.001 33.1589 109.001 32.9141C109.001 32.6693 109.047 32.4442 109.134 32.2388C109.224 32.0334 109.346 31.852 109.506 31.699C109.663 31.546 109.851 31.4258 110.067 31.3406C110.284 31.2554 110.52 31.2117 110.778 31.2117C111.031 31.2117 111.265 31.2532 111.481 31.3384C111.698 31.4236 111.884 31.5417 112.043 31.6946C112.203 31.8498 112.325 32.029 112.412 32.2366C112.5 32.4442 112.543 32.6715 112.543 32.9141C112.543 33.161 112.5 33.3883 112.412 33.5937C112.325 33.7992 112.203 33.9806 112.043 34.1335C111.884 34.2887 111.698 34.4067 111.481 34.4898C111.263 34.5728 111.029 34.6165 110.776 34.6165ZM110.771 34.1925C110.959 34.1925 111.13 34.1598 111.287 34.0964C111.444 34.033 111.58 33.9434 111.696 33.8276C111.811 33.7118 111.901 33.5763 111.967 33.4211C112.032 33.2659 112.065 33.0955 112.065 32.9119C112.065 32.7283 112.032 32.56 111.967 32.4049C111.901 32.2497 111.811 32.1142 111.696 31.9984C111.58 31.8804 111.444 31.7908 111.287 31.7274C111.13 31.664 110.957 31.6313 110.771 31.6313C110.588 31.6313 110.417 31.664 110.26 31.7274C110.102 31.7908 109.967 31.8804 109.849 31.9984C109.731 32.1164 109.639 32.2519 109.576 32.4049C109.51 32.5579 109.477 32.7283 109.477 32.9119C109.477 33.0955 109.51 33.2659 109.576 33.4211C109.641 33.5763 109.733 33.7118 109.849 33.8276C109.967 33.9434 110.102 34.033 110.26 34.0964C110.417 34.1619 110.585 34.1925 110.771 34.1925Z" fill="#16171A"/>
<path d="M121.746 34.5774V31.2468H122.223V34.1643H124.025V34.5774H121.746Z" fill="#16171A"/>
<path d="M134.493 34.6165C134.24 34.6165 134.004 34.5728 133.787 34.4876C133.569 34.4023 133.381 34.2821 133.224 34.1292C133.066 33.974 132.942 33.7948 132.852 33.5894C132.762 33.384 132.719 33.1589 132.719 32.9141C132.719 32.6693 132.765 32.4442 132.852 32.2388C132.942 32.0334 133.064 31.852 133.224 31.699C133.383 31.546 133.569 31.4258 133.785 31.3406C134.002 31.2554 134.238 31.2117 134.493 31.2117C134.747 31.2117 134.983 31.2532 135.197 31.3384C135.413 31.4236 135.599 31.5417 135.759 31.6946C135.918 31.8498 136.041 32.029 136.128 32.2366C136.215 32.4442 136.259 32.6715 136.259 32.9141C136.259 33.161 136.215 33.3883 136.128 33.5937C136.041 33.7992 135.918 33.9806 135.759 34.1335C135.599 34.2887 135.413 34.4067 135.197 34.4898C134.981 34.5728 134.747 34.6165 134.493 34.6165ZM134.489 34.1925C134.677 34.1925 134.847 34.1598 135.005 34.0964C135.162 34.033 135.298 33.9434 135.413 33.8276C135.529 33.7118 135.619 33.5763 135.684 33.4211C135.75 33.2659 135.783 33.0955 135.783 32.9119C135.783 32.7283 135.75 32.56 135.684 32.4049C135.619 32.2497 135.529 32.1142 135.413 31.9984C135.298 31.8804 135.162 31.7908 135.005 31.7274C134.847 31.664 134.675 31.6313 134.489 31.6313C134.305 31.6313 134.135 31.664 133.978 31.7274C133.82 31.7908 133.685 31.8804 133.567 31.9984C133.449 32.1164 133.357 32.2519 133.294 32.4049C133.228 32.5579 133.195 32.7283 133.195 32.9119C133.195 33.0955 133.228 33.2659 133.294 33.4211C133.359 33.5763 133.451 33.7118 133.567 33.8276C133.685 33.9434 133.82 34.033 133.978 34.0964C134.133 34.1619 134.303 34.1925 134.489 34.1925Z" fill="#16171A"/>
<path d="M146.968 34.6165C146.71 34.6165 146.474 34.575 146.257 34.4898C146.041 34.4045 145.855 34.2865 145.696 34.1335C145.536 33.9806 145.414 33.7992 145.324 33.5937C145.235 33.3883 145.191 33.161 145.191 32.9141C145.191 32.6671 145.235 32.4399 145.324 32.2344C145.414 32.029 145.538 31.8476 145.698 31.6946C145.857 31.5417 146.045 31.4215 146.262 31.3384C146.478 31.2532 146.714 31.2117 146.976 31.2117C147.239 31.2117 147.481 31.2554 147.7 31.3406C147.918 31.4258 148.104 31.5548 148.257 31.7252L147.962 32.0203C147.827 31.8869 147.678 31.7908 147.518 31.7274C147.359 31.664 147.184 31.6334 146.998 31.6334C146.808 31.6334 146.631 31.6662 146.467 31.7296C146.303 31.793 146.163 31.8826 146.043 31.9962C145.923 32.1099 145.831 32.2454 145.768 32.4027C145.702 32.56 145.67 32.7305 145.67 32.9141C145.67 33.0955 145.702 33.2638 145.768 33.4211C145.833 33.5784 145.925 33.7139 146.043 33.8298C146.163 33.9456 146.303 34.0352 146.465 34.0986C146.627 34.1619 146.804 34.1947 146.994 34.1947C147.171 34.1947 147.341 34.1663 147.505 34.1117C147.669 34.0549 147.82 33.9631 147.96 33.8341L148.231 34.1947C148.065 34.3346 147.875 34.4395 147.654 34.5116C147.429 34.5794 147.204 34.6165 146.968 34.6165ZM147.772 34.1314V32.8944H148.229V34.1925L147.772 34.1314Z" fill="#16171A"/>
<path d="M158.091 31.2468H157.615V34.5774H158.091V31.2468Z" fill="#16171A"/>
<path d="M168.046 34.1643H169.987V34.5774H167.57V31.2468H169.921V31.6599H168.046V34.1643ZM168.003 32.6848H169.716V33.0891H168.003V32.6848Z" fill="#16171A"/>
<path d="M180.206 34.6165C179.952 34.6165 179.71 34.5772 179.478 34.5007C179.246 34.422 179.065 34.3215 178.932 34.1991L179.109 33.8276C179.235 33.9391 179.397 34.0308 179.594 34.1052C179.791 34.1773 179.996 34.2144 180.208 34.2144C180.402 34.2144 180.558 34.1926 180.678 34.1489C180.798 34.103 180.888 34.044 180.944 33.9653C181.001 33.8888 181.03 33.7992 181.03 33.7008C181.03 33.5872 180.992 33.4954 180.918 33.4255C180.844 33.3556 180.748 33.2987 180.628 33.2572C180.507 33.2135 180.376 33.1764 180.234 33.1458C180.092 33.113 179.948 33.0758 179.804 33.0343C179.659 32.9906 179.528 32.936 179.408 32.8704C179.288 32.8048 179.194 32.7131 179.12 32.6016C179.045 32.488 179.01 32.3437 179.01 32.1667C179.01 31.9962 179.056 31.8367 179.146 31.6925C179.235 31.5482 179.375 31.4324 179.563 31.345C179.753 31.2576 179.992 31.2139 180.284 31.2139C180.477 31.2139 180.669 31.2401 180.859 31.2904C181.049 31.3406 181.215 31.4149 181.353 31.5089L181.196 31.8892C181.054 31.793 180.903 31.7253 180.743 31.6815C180.584 31.6378 180.431 31.6182 180.282 31.6182C180.094 31.6182 179.941 31.6422 179.821 31.6903C179.701 31.7384 179.613 31.8017 179.557 31.8804C179.5 31.9591 179.474 32.0487 179.474 32.147C179.474 32.265 179.511 32.359 179.585 32.4289C179.659 32.4989 179.756 32.5535 179.876 32.595C179.996 32.6366 180.127 32.6737 180.269 32.7065C180.411 32.7393 180.555 32.7764 180.7 32.818C180.844 32.8595 180.975 32.9141 181.095 32.9797C181.213 33.0474 181.309 33.1348 181.381 33.2463C181.456 33.3577 181.491 33.4998 181.491 33.6746C181.491 33.8429 181.445 33.9981 181.353 34.1423C181.261 34.2865 181.119 34.4024 180.927 34.4898C180.739 34.5728 180.499 34.6165 180.206 34.6165Z" fill="#16171A"/>
<path d="M59.2262 27.4594C58.2274 27.4594 57.2462 27.3873 56.2824 27.2452C55.3187 27.1032 54.3964 26.9065 53.5157 26.6574C52.635 26.4082 51.8199 26.1045 51.0724 25.7461C50.3229 25.3898 49.6738 24.9965 49.1274 24.5681L50.9828 20.3918C52.0297 21.1546 53.2906 21.7839 54.7658 22.2822C56.2409 22.7805 57.727 23.0318 59.2262 23.0318C61.0094 23.0318 62.2879 22.763 63.0615 22.2276C63.8352 21.6922 64.222 21.0212 64.222 20.2126C64.222 19.5942 64.0144 19.1003 63.5969 18.7309C63.1795 18.3616 62.6266 18.0469 61.9382 17.7847C61.2476 17.5224 60.4696 17.2908 59.5998 17.0897C58.7301 16.8887 57.8384 16.6745 56.9249 16.4472C56.0092 16.2221 55.1154 15.9424 54.2478 15.608C53.3802 15.2737 52.6 14.8409 51.9095 14.3055C51.2189 13.7701 50.666 13.1057 50.2507 12.3081C49.8333 11.5104 49.6257 10.5292 49.6257 9.36434C49.6257 8.31754 49.8399 7.32974 50.2682 6.40314C50.6966 5.47434 51.3391 4.66138 52.1936 3.95987C53.0502 3.25835 54.132 2.70544 55.4411 2.30115C56.7501 1.89685 58.2842 1.6958 60.0435 1.6958C61.6126 1.6958 63.1468 1.87937 64.6459 2.2487C66.1451 2.61803 67.476 3.15782 68.643 3.87245L66.8947 8.0837C65.7539 7.41934 64.5935 6.92325 63.4156 6.602C62.2376 6.28075 61.1012 6.12122 60.0085 6.12122C58.2471 6.12122 56.9861 6.41188 56.2256 6.99538C55.4629 7.57888 55.0848 8.28694 55.0848 9.11958C55.0848 9.71401 55.2924 10.197 55.7098 10.5641C56.1251 10.9335 56.678 11.2482 57.3686 11.5104C58.0592 11.7726 58.8372 11.9977 59.7069 12.1879C60.5745 12.378 61.4662 12.5856 62.3841 12.8129C63.2997 13.0402 64.1914 13.3177 65.059 13.6521C65.9266 13.9865 66.7068 14.4148 67.3952 14.9371C68.0857 15.4616 68.6386 16.1216 69.0539 16.9171C69.4691 17.7147 69.6789 18.6829 69.6789 19.8258C69.6789 20.8486 69.4647 21.8233 69.0364 22.7521C68.6081 23.6787 67.959 24.4938 67.0914 25.1953C66.2216 25.8969 65.1355 26.4498 63.8264 26.8541C62.5217 27.2584 60.9854 27.4594 59.2262 27.4594Z" fill="#16171A"/>
<path d="M87.8093 27.4594C85.8818 27.4594 84.0919 27.1382 82.4398 26.4957C80.7854 25.8531 79.3584 24.9615 78.1564 23.8185C76.9544 22.6778 76.0147 21.3206 75.3372 19.7515C74.6598 18.1802 74.3188 16.456 74.3188 14.5765C74.3188 12.6971 74.6576 10.9728 75.3372 9.40149C76.0147 7.83238 76.9544 6.47525 78.1564 5.33447C79.3584 4.1937 80.7854 3.29987 82.4398 2.65955C84.0919 2.01705 85.8949 1.6958 87.8443 1.6958C90.01 1.6958 91.9528 2.06513 93.6793 2.80161C95.4035 3.54027 96.8481 4.62204 98.0151 6.0491L94.4813 9.33157C92.768 7.35816 90.6394 6.37035 88.0934 6.37035C86.9045 6.37035 85.8031 6.5736 84.7934 6.97571C83.7816 7.38001 82.914 7.94603 82.1885 8.67158C81.4629 9.39713 80.8991 10.2604 80.4948 11.2591C80.0905 12.2578 79.8872 13.3658 79.8872 14.5787C79.8872 15.7916 80.0883 16.8974 80.4948 17.8961C80.8991 18.8948 81.4629 19.7581 82.1885 20.4836C82.914 21.2092 83.7816 21.773 84.7934 22.1773C85.8031 22.5816 86.9045 22.7827 88.0934 22.7827C90.6394 22.7827 92.768 21.7839 94.4813 19.7865L98.0151 23.1039C96.8481 24.531 95.397 25.6149 93.6618 26.3514C91.9244 27.0923 89.9728 27.4594 87.8093 27.4594Z" fill="#16171A"/>
<path d="M113.99 24.3889C113.975 24.3889 113.958 24.3889 113.942 24.3889C110.308 24.2993 107.847 22.7958 106.422 21.5523L108.964 18.6392C110.328 19.8302 112.017 20.4618 113.988 20.5208C114.01 20.5208 114.03 20.5208 114.049 20.5208C114.69 20.5208 116.928 20.3962 118.873 18.8227L121.305 21.8277C118.457 24.1332 115.291 24.3846 114.056 24.3867C114.034 24.3889 114.012 24.3889 113.99 24.3889Z" fill="#16171A"/>
<path d="M105.972 27.0682H100.334L111.466 2.08911H116.928L128.095 27.0682H122.352L114.178 7.54822L105.972 27.0682Z" fill="#16171A"/>
<path d="M133.021 27.0682V2.08911H138.515V22.5357H151.146V27.0682H133.021Z" fill="#16171A"/>
<path d="M159.21 27.0682H153.572L164.706 2.08911H170.165L181.335 27.0682H175.59L167.418 7.54822L159.21 27.0682Z" fill="#16171A"/>
<path d="M167.554 24.3889C167.539 24.3889 167.522 24.3889 167.506 24.3889C163.872 24.2993 161.411 22.7958 159.986 21.5523L162.528 18.6392C163.892 19.8302 165.581 20.4618 167.552 20.5208C167.574 20.5208 167.594 20.5208 167.613 20.5208C168.254 20.5208 170.492 20.3962 172.437 18.8227L174.869 21.8277C172.021 24.1332 168.855 24.3846 167.62 24.3867C167.598 24.3889 167.576 24.3889 167.554 24.3889Z" fill="#16171A"/>
</svg>
